<svg xmlns="http://www.w3.org/2000/svg" xmlns:xlink="http://www.w3.org/1999/xlink" version="1.1" width="1280" height="720" viewBox="0 0 1280 720"><rect x="0" y="0" width="1280" height="720" fill="#FFFFFF"/>
<g id="shape-2" data-name="Image 2">
<image href="../assets/image_e3c9547525ea84d9.png" x="0" y="0" width="1280" height="720" preserveAspectRatio="none"/>
</g>
<g id="shape-9" data-name="Group 9">
<g id="shape-3" data-name="Rectangle 3">
<rect x="60" y="500" width="380" height="80" rx="40" ry="40" fill="#FFF8EE" stroke-width="4" stroke="#1A1A2E"/>
</g>
<g id="shape-6" data-name="Group 6">
<g id="shape-4" data-name="Freeform 4">
<path d="M 101.25 525 L 95.62 525 L 95.62 528.75 L 91.87 528.75 L 91.87 534.38 L 118.12 534.38 L 118.12 528.75 L 114.37 528.75 L 114.37 525 L 108.75 525 L 108.75 528.75 L 101.25 528.75 L 101.25 525 Z" fill="#FF3DA5" stroke="none"/>
</g>
<g id="shape-5" data-name="Freeform 5">
<path d="M 118.12 538.13 L 91.87 538.13 L 91.87 553.13 L 118.12 553.13 L 118.12 538.13 Z" fill="#FF3DA5" stroke="none"/>
</g>
</g>
<g id="shape-7" data-name="TextBox 7">
<rect x="133.6" y="523.1" width="148.18" height="22.4" fill="none" stroke="none"/>
<text x="133.6" y="535" text-anchor="start" xml:space="preserve" font-family="Impact, &quot;Microsoft YaHei&quot;, sans-serif" font-size="14" fill="#5C5C7A" font-weight="bold"><tspan fill="#5C5C7A" font-size="14" font-weight="bold">SUGAR RUSH · 2026</tspan></text>
</g>
<g id="shape-8" data-name="TextBox 8">
<rect x="131.8" y="540.8" width="211.19" height="51.2" fill="none" stroke="none"/>
<text x="131.8" y="568" text-anchor="start" xml:space="preserve" font-family="Impact, &quot;Microsoft YaHei&quot;, sans-serif" font-size="32" fill="#1A1A2E" font-weight="bold"><tspan fill="#1A1A2E" font-size="32" font-weight="bold">7.18 — 7.24</tspan></text>
</g>
</g>
<g id="shape-13" data-name="Group 13">
<g id="shape-10" data-name="Rectangle 10">
<rect x="860" y="500" width="360" height="80" rx="40" ry="40" fill="#FF3DA5" stroke-width="4" stroke="#1A1A2E"/>
</g>
<g id="shape-11" data-name="TextBox 11">
<rect x="973.52" y="523.1" width="132.97" height="22.4" fill="none" stroke="none"/>
<text x="1040" y="535" text-anchor="middle" xml:space="preserve" font-family="Arial, &quot;Microsoft YaHei&quot;, sans-serif" font-size="14" fill="#FFF8EE" font-weight="bold"><tspan fill="#FFF8EE" font-size="14" font-weight="bold">GET YOUR TICKET</tspan></text>
</g>
<g id="shape-12" data-name="TextBox 12">
<rect x="907.03" y="544.2" width="265.94" height="44.8" fill="none" stroke="none"/>
<text x="1040" y="568" text-anchor="middle" xml:space="preserve" font-family="Impact, &quot;Microsoft YaHei&quot;, sans-serif" font-size="28" fill="#FFF8EE" font-weight="bold"><tspan fill="#FFF8EE" font-size="28" font-weight="bold">sugarrush.fest</tspan></text>
</g>
</g>
<g id="shape-17" data-name="Group 17">
<g id="shape-14" data-name="Rectangle 14">
<rect x="290" y="610" width="700" height="56" rx="28" ry="28" fill="#1A1A2E" stroke="none"/>
</g>
<g id="shape-15" data-name="Freeform 15">
<path d="M 322.17 638.42 L 334 650.25 L 345.83 638.42 C 347.22 637.03 348 635.14 348 633.17 L 348 632.84 C 348 628.93 344.82 625.75 340.91 625.75 C 338.75 625.75 336.72 626.73 335.37 628.41 L 334 630.13 L 332.63 628.41 C 331.28 626.73 329.25 625.75 327.09 625.75 C 323.18 625.75 320 628.93 320 632.84 L 320 633.17 C 320 635.14 320.78 637.03 322.17 638.42 Z" fill="#FFD93D" stroke="none"/>
</g>
<g id="shape-16" data-name="TextBox 16">
<rect x="485.86" y="628" width="308.29" height="32" fill="none" stroke="none"/>
<text x="640" y="645" text-anchor="middle" xml:space="preserve" font-family="Arial, &quot;Microsoft YaHei&quot;, sans-serif" font-size="20" fill="#FFF8EE" font-weight="bold"><tspan fill="#FFF8EE" font-size="20" font-weight="bold">谢谢每一个 </tspan><tspan fill="#FFD93D" font-size="20" font-weight="bold">让夏天变甜</tspan><tspan fill="#FFF8EE" font-size="20" font-weight="bold"> 的人</tspan></text>
</g>
</g>
<g id="shape-23" data-name="Group 23">
<g id="shape-18" data-name="Ellipse 18">
<ellipse cx="100" cy="100" rx="10" ry="10" fill="#FF3DA5" stroke-width="3" stroke="#1A1A2E"/>
</g>
<g id="shape-19" data-name="Ellipse 19">
<ellipse cx="135" cy="80" rx="6" ry="6" fill="#FFD93D" stroke-width="2" stroke="#1A1A2E"/>
</g>
<g id="shape-20" data-name="Ellipse 20">
<ellipse cx="170" cy="130" rx="8" ry="8" fill="#00C896" stroke-width="2" stroke="#1A1A2E"/>
</g>
<g id="shape-21" data-name="Polygon 21">
<path d="M 1170 90 L 1200 120 L 1140 120 Z" fill="#00B8D9" stroke-width="3" stroke="#1A1A2E"/>
</g>
<g id="shape-22" data-name="Freeform 22">
<path d="M 1080 60 L 1110 80 L 1110 60 L 1140 80" fill="none" stroke-width="4" stroke-linecap="round" stroke="#FF6B4A"/>
</g>
</g>
<g id="shape-26" data-name="Group 26">
<g id="shape-24" data-name="TextBox 24">
<rect x="58.9" y="690.65" width="322.31" height="17.6" fill="none" stroke="none"/>
<text x="58.9" y="700" text-anchor="start" xml:space="preserve" font-family="Arial, &quot;Microsoft YaHei&quot;, sans-serif" font-size="11" fill="#1A1A2E" fill-opacity="0.6" font-weight="bold"><tspan fill="#1A1A2E" font-size="11" fill-opacity="0.6" font-weight="bold">© SUGAR RUSH 2026 · Made with sugar in 椰岛大草原</tspan></text>
</g>
<g id="shape-25" data-name="TextBox 25">
<rect x="1118.02" y="688.1" width="103.38" height="22.4" fill="none" stroke="none"/>
<text x="1221.4" y="700" text-anchor="end" xml:space="preserve" font-family="Impact, &quot;Microsoft YaHei&quot;, sans-serif" font-size="14" fill="#1A1A2E" font-weight="bold"><tspan fill="#1A1A2E" font-size="14" font-weight="bold">14 / 14 · FIN.</tspan></text>
</g>
</g></svg>